HIERARCHY
ROOT ui
{
	 OFFSET 0 0 0
	 CHANNELS 3 XPosition YPosition Z Position
	 EndSite
	 {
	 OFFSET 0 -1 0
	 }
}
ROOT li
{
	 OFFSET 0 0 0
	 CHANNELS 3 XPosition YPosition Z Position
	 EndSite
	 {
	 OFFSET 0 -1 0
	 }
}
ROOT ul
{
	 OFFSET 0 0 0
	 CHANNELS 3 XPosition YPosition Z Position
	 EndSite
	 {
	 OFFSET 0 -1 0
	 }
}
ROOT ll
{
	 OFFSET 0 0 0
	 CHANNELS 3 XPosition YPosition Z Position
	 EndSite
	 {
	 OFFSET 0 -1 0
	 }
}
ROOT tt
{
	 OFFSET 0 0 0
	 CHANNELS 3 XPosition YPosition Z Position
	 EndSite
	 {
	 OFFSET 0 -1 0
	 }
}
ROOT tb
{
	 OFFSET 0 0 0
	 CHANNELS 3 XPosition YPosition Z Position
	 EndSite
	 {
	 OFFSET 0 -1 0
	 }
}
ROOT td
{
	 OFFSET 0 0 0
	 CHANNELS 3 XPosition YPosition Z Position
	 EndSite
	 {
	 OFFSET 0 -1 0
	 }
}
ROOT v
{
	 OFFSET 0 0 0
	 CHANNELS 3 XPosition YPosition Z Position
	 EndSite
	 {
	 OFFSET 0 -1 0
	 }
}
ROOT bn
{
	 OFFSET 0 0 0
	 CHANNELS 3 XPosition YPosition Z Position
	 EndSite
	 {
	 OFFSET 0 -1 0
	 }
}
MOTION
Frames: 13
Frame Time: 0.002
-0.020725225448608397	2.342029958963394E-4	0		0.48304486083984377	-2.304514892578125	0		-0.9984066162109375	0.29781121826171875	0		-0.558029052734375	-2.705072265625	0		1.651956787109375	-0.369689697265625	0		3.18627490234375	-0.29250579833984375	0		4.51898388671875	-0.12031224822998046	0		5.920087890625	0.3251639709472656	0		-0.4101564025878906	5.88967919921875	0		
0.054107120513916016	-0.0019022320508956909	0		0.49178054809570315	-2.312668701171875	0		-1.0026101684570312	0.29385025024414063	0		-0.6162413330078125	-2.709229736328125	0		1.607713134765625	-0.37605511474609377	0		3.161222412109375	-0.28615521240234376	0		4.51272119140625	-0.12824264526367188	0		5.91837890625	0.2957733459472656	0		-0.41128631591796877	5.8906728515625	0		
-0.020993499755859374	1.9905999302864075E-4	0		0.4656965637207031	-2.310294921875	0		-0.9986758422851563	0.29777294921875	0		-0.5803755493164062	-2.71078125	0		1.6563768310546876	-0.39079156494140627	0		3.17033642578125	-0.2702951965332031	0		4.51976025390625	-0.11734814453125	0		5.9219619140625	0.31295022583007814	0		-0.43036685180664064	5.894939453125	0		
0.05388151550292969	-0.0019220930337905883	0		0.4936082458496094	-2.310714111328125	0		-0.9987798461914063	0.29775961303710935	0		-0.6093209228515625	-2.701361328125	0		1.618311767578125	-0.38822116088867187	0		3.16689501953125	-0.29323150634765627	0		4.530658203125	-0.11748541259765626	0		5.9255615234375	0.33018289184570315	0		-0.27727517700195314	5.90965380859375	0		
-0.01811902046203613	0.004150928020477295	0		0.4915244445800781	-2.312674560546875	0		-1.0047913208007813	0.3028393249511719	0		-0.575418701171875	-2.7048701171875	0		1.6500965576171875	-0.39767208862304687	0		3.194931640625	-0.28560577392578124	0		4.519578125	-0.1172627182006836	0		5.92550341796875	0.33031582641601565	0		-0.39756610107421875	5.9014375	0		
0.0037490010261535646	-1.6068799793720245E-4	0		0.4826163330078125	-2.304518310546875	0		-1.0089259033203124	0.29889535522460936	0		-0.6212562255859375	-2.692184814453125	0		1.6439156494140625	-0.4055373229980469	0		3.185763916015625	-0.2923983459472656	0		4.5305087890625	-0.11732849884033203	0		5.9291259765625	0.3476995849609375	0		-0.2785942077636719	5.91067822265625	0		
-0.021313436508178712	2.3676300048828126E-4	0		0.47854937744140624	-2.308419677734375	0		-1.0089984741210938	0.2988974914550781	0		-0.5852734985351562	-2.693706298828125	0		1.64081640625	-0.4084247741699219	0		3.177751220703125	-0.2891742248535156	0		4.52432861328125	-0.12509951782226564	0		5.91777490234375	0.3657097473144531	0		-0.446187255859375	5.8861748046875	0		
0.00361714506149292	-9.278800338506699E-5	0		0.474407958984375	-2.3183037109375	0		-1.005015869140625	0.3028467712402344	0		-0.6022536010742188	-2.693432861328125	0		1.5997227783203125	-0.410726318359375	0		3.196425537109375	-0.3073125305175781	0		4.53014697265625	-0.13300444030761718	0		5.93109912109375	0.33621075439453124	0		-0.43032257080078123	5.8939638671875	0		
-0.018394020080566405	0.00428619384765625	0		0.4935404663085938	-2.310511474609375	0		-0.9991744384765625	0.29777520751953124	0		-0.5591240234375	-2.68703564453125	0		1.6321170654296875	-0.4480921936035156	0		3.1977626953125	-0.28015225219726564	0		4.53137451171875	-0.11279209136962891	0		5.92501904296875	0.40093527221679687	0		-0.26324197387695314	5.9185380859375	0		
0.006507675170898438	0.002988058090209961	0		0.4915364990234375	-2.31238916015625	0		-1.0051946411132813	0.30288699340820313	0		-0.6049002685546875	-2.674316650390625	0		1.661862548828125	-0.46138687133789064	0		3.1733447265625	-0.3035804443359375	0		4.5351220703125	-0.12457189178466797	0		5.9249619140625	0.40152850341796875	0		-0.3988586120605469	5.90158154296875	0		
-0.02162290382385254	4.83610987663269E-4	0		0.487497314453125	-2.317218994140625	0		-0.95040869140625	0.2951138916015625	0		-0.5708949584960937	-2.677761474609375	0		1.668357666015625	-0.491312744140625	0		3.182372802734375	-0.2964591064453125	0		4.539921875	-0.13231790161132811	0		5.9401708984375	0.3324739074707031	0		-0.28011398315429686	5.91090185546875	0		
-0.021719617843627928	5.815979838371276E-4	0		0.48551116943359374	-2.31906103515625	0		-1.0185888061523438	0.29114801025390624	0		-0.6136363525390625	-2.66407080078125	0		1.666232421875	-0.49508343505859376	0		3.184118896484375	-0.3081961669921875	0		4.52777587890625	-0.13576994323730468	0		5.94010400390625	0.33326785278320314	0		-0.4479423828125	5.88642236328125	0		
0.04911502838134765	-0.0043371920585632325	0		0.4954337463378906	-2.328060302734375	0		-1.0187078857421874	0.2911931457519531	0		-0.59758984375	-2.66623095703125	0		1.6269954833984375	-0.5062926330566406	0		3.184170166015625	-0.29887283325195313	0		4.53974169921875	-0.131531005859375	0		5.9485517578125	0.32692901611328123	0		-0.3992206115722656	5.90079248046875	0		
